<?xml version="1.0" standalone="no"?>
<!DOCTYPE svg PUBLIC "-//W3C//DTD SVG 20010904//EN"
 "http://www.w3.org/TR/2001/REC-SVG-20010904/DTD/svg10.dtd">
<svg version="1.0" xmlns="http://www.w3.org/2000/svg"
 width="566.000000pt" height="566.000000pt" viewBox="0 0 566.000000 566.000000"
 preserveAspectRatio="xMidYMid meet">
<metadata>
Created by potrace 1.11, written by Peter Selinger 2001-2013
</metadata>
<g transform="translate(0.000000,566.000000) scale(0.100000,-0.100000)"
fill="#000000" stroke="none">
<path d="M2687 5564 c-1 -1 -38 -4 -82 -8 -105 -8 -152 -14 -255 -33 -47 -8
-96 -17 -110 -19 -93 -17 -308 -85 -443 -140 -683 -278 -1232 -827 -1510
-1509 -80 -194 -150 -449 -172 -625 -4 -30 -9 -64 -11 -75 -22 -113 -22 -535
0 -675 2 -14 7 -47 11 -73 7 -52 9 -62 26 -147 157 -780 683 -1481 1400 -1865
240 -129 564 -241 809 -280 25 -4 53 -9 64 -11 10 -2 44 -6 75 -9 31 -3 67 -8
81 -12 40 -9 398 -11 480 -2 124 13 177 20 196 23 11 2 39 7 64 11 25 4 101
20 170 37 768 185 1421 697 1784 1401 41 78 84 167 96 197 12 30 28 69 35 85
49 114 135 439 150 564 4 30 9 63 11 75 28 143 21 657 -11 766 -2 8 -7 38 -11
65 -3 28 -8 53 -10 56 -2 3 -6 21 -9 39 -3 19 -15 68 -26 110 -128 483 -358
885 -709 1240 -338 342 -748 584 -1210 715 -47 13 -96 26 -110 29 -14 2 -56
11 -95 19 -75 16 -179 32 -285 43 -55 6 -387 13 -393 8z m273 -188 c74 -3 144
-8 155 -10 12 -2 48 -7 80 -11 33 -4 101 -16 150 -27 50 -11 99 -21 111 -24
54 -11 230 -69 334 -111 812 -325 1434 -1098 1566 -1948 3 -22 7 -42 9 -45 2
-3 6 -41 10 -85 4 -44 9 -89 11 -100 5 -26 5 -350 0 -390 -2 -16 -7 -61 -11
-100 -3 -38 -10 -88 -15 -110 -5 -22 -11 -58 -15 -80 -18 -121 -75 -314 -139
-473 -366 -905 -1226 -1531 -2196 -1597 -151 -11 -378 -6 -480 10 -14 2 -45 7
-70 10 -188 24 -470 105 -645 183 -675 302 -1165 832 -1407 1522 -17 47 -31
92 -33 100 -2 8 -12 49 -24 90 -18 66 -41 176 -56 265 -27 166 -27 622 0 750
3 11 7 31 9 45 56 346 194 694 393 994 405 610 1058 1022 1778 1122 28 3 59 8
70 10 11 2 72 7 135 10 63 3 117 8 118 9 2 2 9 2 15 0 7 -2 73 -6 147 -9z"/>
<path d="M2599 4484 c-33 -16 -74 -47 -106 -82 l-53 -57 -148 -2 c-121 -2
-156 -6 -193 -21 -54 -23 -106 -74 -126 -120 -17 -40 -19 -127 -4 -166 20 -50
70 -104 119 -127 l47 -23 560 -1 c308 -1 577 3 599 7 97 21 176 119 177 220 1
82 -26 135 -93 185 -49 35 -97 44 -250 46 l-138 2 -53 56 c-70 76 -123 102
-213 105 -57 3 -80 -1 -125 -22z"/>
<path d="M1542 4067 c-16 -19 -15 -2822 1 -2835 7 -6 359 -9 895 -9 860 0 883
1 893 19 8 16 3 31 -30 81 -92 142 -124 295 -96 457 37 217 223 417 441 475
32 9 101 18 153 20 51 2 96 6 98 9 8 8 7 1772 -1 1785 -10 16 -261 15 -273 -1
-5 -7 -17 -38 -26 -69 -35 -114 -118 -199 -234 -241 -56 -20 -79 -20 -629 -21
-606 0 -635 2 -717 49 -81 46 -158 142 -172 216 -2 10 -10 30 -17 45 l-13 28
-131 3 c-99 2 -134 -1 -142 -11z m1969 -731 c32 -23 41 -54 25 -85 -9 -16 -23
-31 -31 -35 -9 -3 -365 -6 -790 -6 -721 0 -774 1 -793 18 -19 15 -26 37 -23
69 0 7 10 21 22 32 21 19 40 19 798 19 563 0 781 -3 792 -12z m5 -433 c33 -21
36 -71 8 -100 l-23 -23 -779 0 c-728 0 -781 1 -800 18 -31 26 -33 71 -4 100
18 18 57 19 798 19 650 0 783 -2 800 -14z m5 -439 c30 -30 31 -60 4 -91 l-23
-28 -782 0 -782 0 -23 27 c-37 43 -13 102 45 110 14 1 366 3 783 2 737 -1 759
-2 778 -20z m-825 -597 c28 -10 46 -51 35 -80 -19 -50 -18 -50 -389 -49 -191
0 -360 1 -375 1 -38 1 -77 42 -70 72 3 13 14 33 24 44 17 19 30 20 386 19 202
0 377 -3 389 -7z"/>
<path d="M3758 2134 c-2 -1 -22 -5 -46 -9 -24 -3 -71 -19 -105 -36 -247 -118
-342 -412 -212 -658 57 -106 182 -200 309 -230 144 -35 323 14 433 118 157
149 190 410 75 591 -62 97 -175 182 -280 210 -39 10 -168 21 -174 14z m329
-266 c14 -13 23 -33 23 -51 0 -25 -29 -59 -186 -218 -192 -193 -223 -215 -262
-187 -23 16 -174 195 -190 225 -17 31 -15 46 8 71 23 24 74 30 93 9 7 -6 34
-38 60 -70 27 -31 56 -57 66 -57 9 0 84 68 166 150 160 161 177 171 222 128z"/>
</g>
</svg>
