<svg xmlns="http://www.w3.org/2000/svg" width="24" height="24" viewBox="0 0 24 24">
  <g id="delete_row" transform="translate(-636 -594)">
    <path id="Path_47" data-name="Path 47" d="M636,594h24v24H636Z" fill="none"/>
    <path id="Path_48" data-name="Path 48" d="M642,613a2.006,2.006,0,0,0,2,2h8a2.006,2.006,0,0,0,2-2V601H642Zm2.46-7.12,1.41-1.41,2.13,2.12,2.12-2.12,1.41,1.41L649.41,608l2.12,2.12-1.41,1.41L648,609.41l-2.12,2.12-1.41-1.41,2.12-2.12ZM651.5,598l-1-1h-5l-1,1H641v2h14v-2Z"/>
    <path id="Path_49" data-name="Path 49" d="M636,594h24v24H636Z" fill="none"/>
  </g>
</svg>
