<svg xmlns="http://www.w3.org/2000/svg" width="48" height="48" viewBox="0 0 48 48">
  <g id="search" transform="translate(-606.072 -22.614)">
    <path id="Path_9" data-name="Path 9" d="M606.072,22.614h48v48h-48Z" fill="none"/>
    <path id="Path_10" data-name="Path 10" d="M646.072,61.784V38.614l-12-12h-16a3.982,3.982,0,0,0-3.98,4l-.02,32a3.982,3.982,0,0,0,3.98,4h24.02a3.912,3.912,0,0,0,2.37-.8l-8.87-8.87a9.861,9.861,0,0,1-5.5,1.67,10.011,10.011,0,1,1,8.34-4.49Zm-22-13.17a6,6,0,1,0,6-6A6,6,0,0,0,624.072,48.614Z"/>
  </g>
</svg>
