<svg xmlns="http://www.w3.org/2000/svg" xmlns:xlink="http://www.w3.org/1999/xlink"><defs><style>
    .sprite-symbol-usage {display: none;}
    .sprite-symbol-usage:target {display: inline;}
  </style><symbol viewBox="0 0 48 48" id="add_passport"><path data-name="Path 3" d="M0 0h48v48H0z" fill="none" /><path data-name="Path 4" d="M8 12H4v28a4 4 0 004 4h28v-4H8zm32-8H16a4 4 0 00-4 4v24a4 4 0 004 4h24a4 4 0 004-4V8a4 4 0 00-4-4zm-2 18h-8v8h-4v-8h-8v-4h8v-8h4v8h8z" /></symbol><symbol viewBox="0 0 48 48" id="approve"><path data-name="Path 17" d="M0 0h48v48H0z" fill="none" /><path data-name="Path 18" d="M36 14l-2.83-2.83-12.68 12.69 2.83 2.83zm8.49-2.83L23.31 32.34 14.97 24l-2.83 2.83L23.31 38l24-24zM.83 26.83L12 38l2.83-2.83L3.66 24z" /></symbol><symbol viewBox="0 0 24 24" id="calendar"><path data-name="Path 11" d="M0 0h24v24H0z" fill="none" /><path data-name="Path 12" d="M19 3h-1V1h-2v2H8V1H6v2H5a1.991 1.991 0 00-1.99 2L3 19a2 2 0 002 2h14a2.006 2.006 0 002-2V5a2.006 2.006 0 00-2-2zm0 16H5V8h14zM7 10h5v5H7z" /></symbol><symbol viewBox="0 0 48 48" id="create_new"><path data-name="Path 1" d="M0 0h48v48H0z" fill="none" /><path data-name="Path 2" d="M28 4H12a3.982 3.982 0 00-3.98 4L8 40a3.982 3.982 0 003.98 4H36a4 4 0 004-4V16zm4 28h-6v6h-4v-6h-6v-4h6v-6h4v6h6zm-6-14V7l11 11z" /></symbol><symbol viewBox="0 0 24 24" id="delete_row"><path data-name="Path 47" d="M0 0h24v24H0z" fill="none" /><path data-name="Path 48" d="M6 19a2.006 2.006 0 002 2h8a2.006 2.006 0 002-2V7H6zm2.46-7.12l1.41-1.41L12 12.59l2.12-2.12 1.41 1.41L13.41 14l2.12 2.12-1.41 1.41L12 15.41l-2.12 2.12-1.41-1.41L10.59 14zM15.5 4l-1-1h-5l-1 1H5v2h14V4z" /><path data-name="Path 49" d="M0 0h24v24H0z" fill="none" /></symbol><symbol viewBox="0 0 24 24" id="new_row"><path data-name="Path 50" d="M0 0h24v24H0z" fill="none" /><path data-name="Path 51" d="M14 10H2v2h12zm0-4H2v2h12zm4 8v-4h-2v4h-4v2h4v4h2v-4h4v-2zM2 16h8v-2H2z" /></symbol><symbol viewBox="0 0 48 48" id="print"><path data-name="Path 15" d="M38 16H10a6 6 0 00-6 6v12h8v8h24v-8h8V22a6 6 0 00-6-6zm-6 22H16V28h16zm6-14a2 2 0 112-2 1.993 1.993 0 01-2 2zM36 6H12v8h24z" /><path data-name="Path 16" d="M0 0h48v48H0z" fill="none" /></symbol><symbol viewBox="0 0 48 48" id="search"><path data-name="Path 9" d="M0 0h48v48H0z" fill="none" /><path data-name="Path 10" d="M40 39.17V16L28 4H12a3.982 3.982 0 00-3.98 4L8 40a3.982 3.982 0 003.98 4H36a3.912 3.912 0 002.37-.8l-8.87-8.87A9.861 9.861 0 0124 36a10.011 10.011 0 118.34-4.49zM18 26a6 6 0 106-6 6 6 0 00-6 6z" /></symbol></defs><use id="add_passport-usage" xlink:href="#add_passport" class="sprite-symbol-usage" /><use id="approve-usage" xlink:href="#approve" class="sprite-symbol-usage" /><use id="calendar-usage" xlink:href="#calendar" class="sprite-symbol-usage" /><use id="create_new-usage" xlink:href="#create_new" class="sprite-symbol-usage" /><use id="delete_row-usage" xlink:href="#delete_row" class="sprite-symbol-usage" /><use id="new_row-usage" xlink:href="#new_row" class="sprite-symbol-usage" /><use id="print-usage" xlink:href="#print" class="sprite-symbol-usage" /><use id="search-usage" xlink:href="#search" class="sprite-symbol-usage" /></svg>